<svg width="44" height="44" viewBox="0 0 44 44" fill="none" xmlns="http://www.w3.org/2000/svg">
<circle cx="22" cy="22" r="20.5" fill="#FCAF17" stroke="white" stroke-width="3"/>
<path fill-rule="evenodd" clip-rule="evenodd" d="M22.6332 21.9996L28.2676 16.3653C28.6742 15.9587 28.7711 15.381 28.4811 15.0911C28.1912 14.8012 27.6136 14.898 27.2069 15.3047L21.5726 20.939L16.3653 15.7318C15.9587 15.3251 15.381 15.2283 15.0911 15.5182C14.8012 15.8081 14.898 16.3858 15.3047 16.7924L20.5119 21.9996L15.3047 27.2068C14.898 27.6135 14.8012 28.1911 15.0911 28.481C15.381 28.771 15.9587 28.6741 16.3653 28.2675L21.5726 23.0603L27.2069 28.6946C27.6136 29.1012 28.1912 29.198 28.4811 28.9081C28.7711 28.6182 28.6742 28.0406 28.2676 27.6339L22.6332 21.9996Z" fill="white"/>
</svg>
