<svg width="20" height="20" viewBox="0 0 20 20" fill="none" xmlns="http://www.w3.org/2000/svg">
<path d="M8.74179 1.8583L4.58346 3.41663C3.62513 3.77496 2.8418 4.90829 2.8418 5.93329L2.8418 12.1249C2.8418 13.1083 3.49181 14.4 4.28347 14.9916L7.8668 17.6666C9.0418 18.55 10.9751 18.55 12.1501 17.6666L15.7335 14.9916C16.5251 14.4 17.1751 13.1083 17.1751 12.1249V5.93329C17.1751 4.90829 16.3918 3.77496 15.4335 3.41663L11.2751 1.8583C10.5668 1.59997 9.43345 1.59997 8.74179 1.8583Z" stroke="#292D32" stroke-width="1.5" stroke-linecap="round" stroke-linejoin="round"/>
<path d="M10.001 9.09998C9.96771 9.09998 9.92604 9.09998 9.89271 9.09998C9.10938 9.07498 8.48438 8.42497 8.48438 7.6333C8.48438 6.82497 9.14272 6.16663 9.95105 6.16663C10.7594 6.16663 11.4177 6.82497 11.4177 7.6333C11.4094 8.4333 10.7844 9.07498 10.001 9.09998Z" stroke="#292D32" stroke-width="1.5" stroke-linecap="round" stroke-linejoin="round"/>
<path d="M8.34219 11.4333C7.54219 11.9666 7.54219 12.8416 8.34219 13.375C9.25052 13.9833 10.7422 13.9833 11.6505 13.375C12.4505 12.8416 12.4505 11.9666 11.6505 11.4333C10.7505 10.825 9.25885 10.825 8.34219 11.4333Z" stroke="#292D32" stroke-width="1.5" stroke-linecap="round" stroke-linejoin="round"/>
</svg>
